# xmcd CD database file
# Copyright (C) 1993-1998 Ti Kan
#
# Track frame offsets:
# 197
# 2822
# 19595
# 35630
# 53585
# 68287
# 86125
# 103130
# 119442
# 139742
#
# Disc length: 2155 seconds
# Revision: 0
# Processed by: cddbd v1.4b41PL1 Copyright (c) Steve Scherf et al.
# Submitted via: CDSpectrumPro v3.3.331
#
DISCID=7c08690a
DTITLE=M.C. Twist and The Def Squad - Comin' Thru Like Warriors
DYEAR=1900
DGENRE=
TTITLE0=Intro
TTITLE1=The House Jumps
TTITLE2=U Gettin' Ill 2 Much
TTITLE3=B-L-N-T
TTITLE4=Mary Mack
TTITLE5=I Like It Loud
TTITLE6=R.O.A
TTITLE7=Shock The House
TTITLE8=So Ruff
TTITLE9=Not Jus' A Pretty Face
EXTD=
EXTT0=
EXTT1=
EXTT2=
EXTT3=
EXTT4=
EXTT5=
EXTT6=
EXTT7=
EXTT8=
EXTT9=
PLAYORDER=
